<svg width="17" height="17" viewBox="0 0 17 17" fill="none" xmlns="http://www.w3.org/2000/svg">
<path d="M8.28507 9.32075C7.773 9.32075 7.27242 9.1689 6.84665 8.88441C6.42088 8.59992 6.08903 8.19556 5.89307 7.72246C5.69711 7.24937 5.64583 6.72879 5.74573 6.22656C5.84563 5.72433 6.09222 5.26299 6.45431 4.9009C6.8164 4.53881 7.27773 4.29223 7.77996 4.19233C8.2822 4.09243 8.80278 4.1437 9.27587 4.33966C9.74896 4.53562 10.1533 4.86747 10.4378 5.29325C10.7223 5.71902 10.8742 6.21959 10.8742 6.73166C10.8733 7.41808 10.6003 8.07615 10.1149 8.56152C9.62955 9.04688 8.97148 9.31993 8.28507 9.32075ZM8.28507 5.17821C7.97783 5.17821 7.67748 5.26932 7.42202 5.44002C7.16655 5.61071 6.96745 5.85333 6.84987 6.13718C6.73229 6.42104 6.70153 6.73339 6.76147 7.03473C6.82141 7.33607 6.96936 7.61287 7.18661 7.83012C7.40387 8.04737 7.68067 8.19532 7.98201 8.25527C8.28335 8.31521 8.59569 8.28444 8.87955 8.16686C9.16341 8.04929 9.40602 7.85018 9.57672 7.59471C9.74741 7.33925 9.83852 7.03891 9.83852 6.73166C9.83811 6.31979 9.67431 5.9249 9.38307 5.63366C9.09183 5.34242 8.69694 5.17862 8.28507 5.17821Z" fill="#191919"/>
<path d="M8.28507 15.5345L3.91677 10.3828C3.85607 10.3054 3.796 10.2276 3.73657 10.1492C2.99038 9.16629 2.58728 7.9657 2.58909 6.73163C2.58909 5.22096 3.1892 3.77216 4.2574 2.70396C5.32561 1.63576 6.7744 1.03564 8.28507 1.03564C9.79574 1.03564 11.2445 1.63576 12.3127 2.70396C13.3809 3.77216 13.9811 5.22096 13.9811 6.73163C13.9829 7.96514 13.5799 9.16519 12.8341 10.1477L12.8336 10.1492C12.8336 10.1492 12.6782 10.3532 12.6549 10.3807L8.28507 15.5345ZM4.563 9.52525C4.56404 9.52525 4.68417 9.68474 4.71162 9.71891L8.28507 13.9334L11.8632 9.71322C11.886 9.68474 12.0071 9.52422 12.0077 9.5237C12.6172 8.72062 12.9466 7.73983 12.9454 6.73163C12.9454 5.49563 12.4544 4.31025 11.5804 3.43626C10.7065 2.56228 9.52107 2.07128 8.28507 2.07128C7.04907 2.07128 5.86369 2.56228 4.98971 3.43626C4.11572 4.31025 3.62472 5.49563 3.62472 6.73163C3.62363 7.74046 3.95342 8.72181 4.56352 9.52525H4.563Z" fill="#191919"/>
</svg>
