<svg width="24" height="24" viewBox="0 0 24 24" fill="none" xmlns="http://www.w3.org/2000/svg">
<path fill-rule="evenodd" clip-rule="evenodd" d="M16.207 4.89297C17.5853 6.27116 18.4131 8.10506 18.535 10.0503C18.6568 11.9956 18.0645 13.9185 16.869 15.458C16.885 15.471 16.899 15.485 16.914 15.5L21.157 19.743C21.3392 19.9316 21.44 20.1842 21.4377 20.4464C21.4354 20.7086 21.3302 20.9594 21.1448 21.1448C20.9594 21.3302 20.7086 21.4354 20.4464 21.4376C20.1842 21.4399 19.9316 21.3391 19.743 21.157L15.5 16.914C15.4855 16.8994 15.4715 16.8844 15.458 16.869C13.8504 18.116 11.828 18.7036 9.80247 18.5125C7.7769 18.3213 5.90023 17.3657 4.55426 15.8399C3.20829 14.3142 2.49413 12.333 2.55705 10.2994C2.61998 8.26581 3.45528 6.33256 4.89301 4.89297C5.63588 4.15006 6.51781 3.56075 7.48844 3.15869C8.45908 2.75662 9.4994 2.54968 10.55 2.54968C11.6006 2.54968 12.6409 2.75662 13.6116 3.15869C14.5822 3.56075 15.4641 4.15006 16.207 4.89297ZM6.30701 14.793C6.86414 15.3502 7.52557 15.7922 8.25352 16.0938C8.98147 16.3953 9.7617 16.5506 10.5497 16.5506C11.3376 16.5507 12.1178 16.3955 12.8458 16.094C13.5738 15.7925 14.2353 15.3506 14.7925 14.7935C15.3497 14.2363 15.7917 13.5749 16.0933 12.847C16.3949 12.119 16.5501 11.3388 16.5502 10.5508C16.5502 9.76288 16.3951 8.98263 16.0936 8.25464C15.7921 7.52665 15.3501 6.86517 14.793 6.30797C13.6647 5.19789 12.1434 4.57863 10.5606 4.58507C8.9778 4.59152 7.46165 5.22315 6.34242 6.34238C5.22318 7.46162 4.59155 8.97777 4.58511 10.5606C4.57866 12.1434 5.19793 13.6647 6.30801 14.793H6.30701Z" fill="#264576"/>
</svg>
