<svg width="160" height="25" viewBox="0 0 160 25" fill="none" xmlns="http://www.w3.org/2000/svg">
<path d="M12 20.5702C7.55556 20.5702 4 17.0146 4 12.5702C4 8.12575 7.55556 4.57019 12 4.57019C16.4444 4.57019 20 8.12575 20 12.5702C20 17.0146 16.4444 20.5702 12 20.5702ZM12 6.34797C8.53333 6.34797 5.77778 9.10352 5.77778 12.5702C5.77778 16.0369 8.53333 18.7924 12 18.7924C15.4667 18.7924 18.2222 16.0369 18.2222 12.5702C18.2222 9.10352 15.4667 6.34797 12 6.34797Z" fill="#191919"/>
<path d="M11.9998 17.4589C11.4664 17.4589 11.1109 17.1033 11.1109 16.57V11.77C11.1109 11.2367 11.4664 10.8811 11.9998 10.8811C12.5331 10.8811 12.8887 11.2367 12.8887 11.77V16.57C12.8887 17.1033 12.5331 17.4589 11.9998 17.4589Z" fill="#191919"/>
<path d="M12 9.81461C11.4667 9.81461 11.1111 9.45905 11.1111 8.92572V8.57016C11.1111 8.03683 11.4667 7.68127 12 7.68127C12.5333 7.68127 12.8889 8.03683 12.8889 8.57016V8.92572C12.8889 9.45905 12.5333 9.81461 12 9.81461Z" fill="#191919"/>
<path d="M52.1 19.5702H39.4C38.1 19.5702 37 18.4702 37 17.1702V9.47019C37 8.17019 38.1 7.07019 39.4 7.07019C39.6 7.07019 39.7 6.97019 39.8 6.77019L40.2 5.67019C40.5 4.67019 41.5 4.07019 42.5 4.07019H49C50 4.07019 50.9 4.67019 51.3 5.67019L51.7 6.77019C51.8 6.97019 51.9 7.07019 52.1 7.07019C53.4 7.07019 54.5 8.17019 54.5 9.47019V17.1702C54.5 18.4702 53.4 19.5702 52.1 19.5702ZM42.5 6.07019C42.3 6.07019 42.2 6.17019 42.1 6.37019L41.7 7.47019C41.4 8.47019 40.4 9.07019 39.4 9.07019C39.2 9.07019 39 9.27019 39 9.47019V17.1702C39 17.3702 39.2 17.5702 39.4 17.5702H52.1C52.3 17.5702 52.5 17.3702 52.5 17.1702V9.47019C52.5 9.27019 52.3 9.07019 52.1 9.07019C51.1 9.07019 50.2 8.47019 49.8 7.47019L49.4 6.37019C49.3 6.17019 49.2 6.07019 49 6.07019H42.5Z" fill="#191919"/>
<path d="M45.8 16.0702C43.9 16.0702 42.3 14.4702 42.3 12.5702C42.3 10.6702 43.9 9.07019 45.8 9.07019C47.7 9.07019 49.3 10.6702 49.3 12.5702C49.3 14.4702 47.7 16.0702 45.8 16.0702ZM45.8 11.0702C45 11.0702 44.3 11.7702 44.3 12.5702C44.3 13.3702 45 14.0702 45.8 14.0702C46.6 14.0702 47.3 13.3702 47.3 12.5702C47.3 11.7702 46.6 11.0702 45.8 11.0702Z" fill="#191919"/>
<path d="M76.1 20.0701C75.7 20.0701 75.2 19.9701 74.8 19.7701C74 19.2701 73.5 18.4701 73.5 17.5701V7.67009C73.5 6.77009 74 5.87009 74.8 5.47009C75.6 4.97009 76.6 4.97009 77.4 5.47009L85.9 10.3701C86.7 10.8701 87.2 11.6701 87.2 12.5701C87.2 13.4701 86.7 14.3701 85.9 14.7701L77.4 19.6701C77 19.9701 76.5 20.0701 76.1 20.0701ZM76.1 7.07009C76 7.07009 75.9 7.07009 75.8 7.17009C75.7 7.27009 75.5 7.37009 75.5 7.67009V17.4701C75.5 17.7701 75.7 17.9701 75.8 17.9701C75.9 17.9701 76.1 18.0701 76.4 17.9701L84.9 13.0701C85.2 12.8701 85.2 12.6701 85.2 12.5701C85.2 12.4701 85.2 12.1701 84.9 12.0701L76.4 7.17009C76.3 7.07009 76.2 7.07009 76.1 7.07009Z" fill="#191919"/>
<path d="M114.5 5.77009C113.8 5.37009 113 5.37009 112.4 5.77009L108.3 8.17009H105C104.4 8.17009 104 8.57009 104 9.17009V15.9701C104 16.5701 104.4 16.9701 105 16.9701H108.2L112.3 19.3701C112.6 19.5701 113 19.6701 113.4 19.6701C113.8 19.6701 114.1 19.5701 114.5 19.3701C115.2 18.9701 115.6 18.2701 115.6 17.5701V7.57009C115.5 6.87009 115.1 6.17009 114.5 5.77009ZM113.5 17.5701C113.5 17.5701 113.5 17.6701 113.4 17.6701C113.3 17.6701 113.3 17.6701 113.3 17.6701L109 15.0701C108.8 14.9701 108.7 14.9701 108.5 14.9701H106V10.1701H108.5C108.7 10.1701 108.8 10.1701 109 10.0701L113.4 7.57009H113.5V17.5701Z" fill="#191919"/>
<path d="M121.6 6.67012C121.2 6.27012 120.6 6.27012 120.2 6.67012C119.8 7.07012 119.8 7.67012 120.2 8.07012C122.6 10.4701 122.6 14.4701 120.2 16.8701C119.8 17.2701 119.8 17.8701 120.2 18.2701C120.4 18.4701 120.7 18.5701 120.9 18.5701C121.1 18.5701 121.4 18.4701 121.6 18.2701C124.8 15.1701 124.8 9.87012 121.6 6.67012Z" fill="#191919"/>
<path d="M117.1 9.77009C116.7 10.1701 116.7 10.7701 117.1 11.1701C117.8 11.8701 117.8 13.0701 117.1 13.8701C116.7 14.2701 116.7 14.8701 117.1 15.2701C117.3 15.4701 117.6 15.5701 117.8 15.5701C118 15.5701 118.3 15.4701 118.5 15.2701C120 13.7701 120 11.2701 118.5 9.77009C118.1 9.37009 117.5 9.37009 117.1 9.77009Z" fill="#191919"/>
<path d="M152.701 5.57019C151.401 4.27019 149.801 3.57019 148.001 3.57019C146.301 3.57019 144.601 4.27019 143.301 5.57019C142.001 6.87019 141.301 8.47019 141.301 10.2702C141.301 12.5702 142.501 14.6702 144.401 15.8702C146.001 16.8702 147.001 18.4702 147.001 20.1702V20.3702C147.001 20.9702 147.401 21.3702 148.001 21.3702C148.601 21.3702 149.001 20.9702 149.001 20.3702V20.1702C149.001 18.4702 150.001 16.8702 151.601 15.8702C153.501 14.6702 154.701 12.5702 154.701 10.2702C154.701 8.57019 154.001 6.87019 152.701 5.57019ZM150.501 14.2702C149.401 14.9702 148.601 15.7702 148.001 16.7702C147.401 15.7702 146.601 14.8702 145.501 14.2702C144.101 13.3702 143.301 11.9702 143.301 10.3702C143.301 9.17019 143.801 7.97019 144.701 7.07019C145.601 6.17019 146.801 5.67019 148.001 5.67019C149.201 5.67019 150.401 6.17019 151.301 7.07019C152.201 7.97019 152.701 9.17019 152.701 10.3702C152.701 11.8702 151.901 13.3702 150.501 14.2702Z" fill="#191919"/>
<path d="M148.001 8.57019C147.101 8.57019 146.301 9.37019 146.301 10.2702C146.301 11.1702 147.101 11.9702 148.001 11.9702C148.901 11.9702 149.701 11.1702 149.701 10.2702C149.701 9.37019 148.901 8.57019 148.001 8.57019Z" fill="#191919"/>
</svg>
